<svg width="482" height="76" viewBox="0 0 482 76" fill="none" xmlns="http://www.w3.org/2000/svg">
<g clip-path="url(#clip0_2471_10545)">
<rect x="0.0976562" y="-0.207031" width="151.569" height="75.7846" rx="37.8923" fill="#336CFF"/>
<circle cx="41.4375" cy="37.6855" r="31" fill="white"/>
<mask id="mask0_2471_10545" style="mask-type:alpha" maskUnits="userSpaceOnUse" x="10" y="6" width="63" height="63">
<path d="M72.4373 37.6855C72.4373 54.8063 58.5584 68.6855 41.4376 68.6855C24.3166 68.6855 10.4375 54.8063 10.4375 37.6855C10.4375 20.5648 24.3166 6.68555 41.4376 6.68555C58.5584 6.68555 72.4373 20.5648 72.4373 37.6855Z" fill="#0085FF"/>
</mask>
<g mask="url(#mask0_2471_10545)">
<path fill-rule="evenodd" clip-rule="evenodd" d="M28.0042 51.1192C35.4236 58.5386 47.4528 58.5386 54.8722 51.1192C62.2916 43.6998 62.2916 31.6706 54.8722 24.2512C47.4528 16.8319 35.4236 16.8319 28.0042 24.2512C20.5848 31.6706 20.5848 43.6998 28.0042 51.1192ZM26.3593 52.7642C34.6871 61.0921 48.1893 61.0921 56.5172 52.7642C64.8451 44.4363 64.8451 30.9341 56.5172 22.6063C48.1893 14.2784 34.6871 14.2784 26.3593 22.6063C18.0313 30.9341 18.0313 44.4363 26.3593 52.7642Z" fill="#336CFF"/>
<path d="M59.2521 53.8572C60.1606 52.9487 61.6336 52.9487 62.5421 53.8572L72.9602 64.2753C73.8687 65.1838 73.8687 66.6567 72.9602 67.5652L71.3152 69.2102C70.4067 70.1187 68.9338 70.1187 68.0253 69.2102L57.6072 58.7921C56.6987 57.8836 56.6987 56.4106 57.6072 55.5021L59.2521 53.8572Z" fill="#336CFF"/>
<path d="M55.651 51.3497C56.2566 50.7441 57.2386 50.7441 57.8442 51.3497L61.764 55.2692C62.3696 55.8751 62.3696 56.857 61.764 57.4626L61.2156 58.011C60.61 58.6166 59.628 58.6166 59.0222 58.011L55.1026 54.0913C54.497 53.4857 54.497 52.5037 55.1026 51.8981L55.651 51.3497Z" fill="#336CFF"/>
</g>
<ellipse cx="41.4385" cy="37.6865" rx="22.9189" ry="22.9189" fill="#336CFF"/>
<path d="M27.9688 37.686C27.9688 30.2477 33.9987 24.2178 41.437 24.2178C48.8753 24.2178 54.9053 30.2477 54.9053 37.686V51.1543H41.437C33.9987 51.1543 27.9688 45.1243 27.9688 37.686Z" fill="white"/>
<rect x="27.9688" y="24.2178" width="26.9365" height="26.9365" rx="13.4683" fill="white"/>
<circle cx="41.4375" cy="34.6855" r="3" fill="#336CFF"/>
<circle cx="34.1758" cy="33.2559" r="3" fill="#336CFF"/>
<ellipse cx="44.4961" cy="54.3379" rx="5" ry="4" fill="#336CFF"/>
<circle cx="51.2461" cy="52.4033" r="4" fill="#336CFF"/>
<path d="M138.096 23.9035C134.576 16.8123 128.477 11.3364 121.049 8.59849C113.621 5.8606 105.427 6.06826 98.1474 9.1789C90.8675 12.2895 85.0536 18.0674 81.8978 25.3278C78.7419 32.5881 78.4833 40.7807 81.175 48.2256C83.8666 55.6706 89.3046 61.8036 96.3737 65.3672C103.443 68.9308 111.607 69.6548 119.193 67.3909C126.779 65.1269 133.212 60.0465 137.172 53.1915C141.131 46.3364 142.318 38.2261 140.489 30.5237L132.592 32.3989C133.942 38.0846 133.066 44.0713 130.143 49.1315C127.22 54.1916 122.472 57.9418 116.872 59.613C111.273 61.2842 105.246 60.7497 100.027 58.1192C94.8093 55.4887 90.7952 50.9615 88.8083 45.4659C86.8214 39.9703 87.0123 33.9228 89.3418 28.5635C91.6714 23.2041 95.963 18.9391 101.337 16.6429C106.71 14.3468 112.759 14.1935 118.242 16.2145C123.725 18.2355 128.227 22.2777 130.825 27.5121L138.096 23.9035Z" fill="white"/>
<path d="M97.1094 40L132.722 32.3592L140.203 40H97.1094Z" fill="white"/>
<path d="M200.823 39.8781C200.823 44.5798 199.942 48.6068 198.181 51.9591C196.434 55.2971 194.047 57.854 191.022 59.6295C188.01 61.4051 184.594 62.2929 180.773 62.2929C176.952 62.2929 173.529 61.4051 170.503 59.6295C167.492 57.8398 165.105 55.2758 163.344 51.9378C161.597 48.5855 160.723 44.5656 160.723 39.8781C160.723 35.1764 161.597 31.1565 163.344 27.8184C165.105 24.4662 167.492 21.9023 170.503 20.1267C173.529 18.3511 176.952 17.4633 180.773 17.4633C184.594 17.4633 188.01 18.3511 191.022 20.1267C194.047 21.9023 196.434 24.4662 198.181 27.8184C199.942 31.1565 200.823 35.1764 200.823 39.8781ZM192.875 39.8781C192.875 36.5684 192.357 33.7773 191.32 31.5045C190.297 29.2176 188.877 27.4917 187.059 26.327C185.24 25.148 183.145 24.5585 180.773 24.5585C178.401 24.5585 176.306 25.148 174.488 26.327C172.669 27.4917 171.242 29.2176 170.205 31.5045C169.182 33.7773 168.671 36.5684 168.671 39.8781C168.671 43.1878 169.182 45.9861 170.205 48.273C171.242 50.5457 172.669 52.2716 174.488 53.4506C176.306 54.6153 178.401 55.1977 180.773 55.1977C183.145 55.1977 185.24 54.6153 187.059 53.4506C188.877 52.2716 190.297 50.5457 191.32 48.273C192.357 45.9861 192.875 43.1878 192.875 39.8781ZM224.532 28.969V34.9349H205.185V28.969H224.532ZM210.022 61.6963V25.8795C210.022 23.6778 210.477 21.8454 211.386 20.3824C212.309 18.9193 213.545 17.8255 215.093 17.1011C216.641 16.3767 218.36 16.0145 220.249 16.0145C221.585 16.0145 222.771 16.121 223.808 16.3341C224.844 16.5471 225.612 16.7389 226.109 16.9094L224.575 22.8753C224.248 22.7758 223.836 22.6764 223.339 22.577C222.842 22.4633 222.288 22.4065 221.677 22.4065C220.242 22.4065 219.227 22.7545 218.63 23.4505C218.048 24.1324 217.756 25.1125 217.756 26.3909V61.6963H210.022ZM247.149 28.969V34.9349H227.803V28.969H247.149ZM232.639 61.6963V25.8795C232.639 23.6778 233.094 21.8454 234.003 20.3824C234.926 18.9193 236.162 17.8255 237.71 17.1011C239.259 16.3767 240.977 16.0145 242.866 16.0145C244.202 16.0145 245.388 16.121 246.425 16.3341C247.462 16.5471 248.229 16.7389 248.726 16.9094L247.192 22.8753C246.865 22.7758 246.453 22.6764 245.956 22.577C245.459 22.4633 244.905 22.4065 244.294 22.4065C242.859 22.4065 241.844 22.7545 241.247 23.4505C240.665 24.1324 240.374 25.1125 240.374 26.3909V61.6963H232.639ZM266.448 62.3355C263.167 62.3355 260.333 61.6537 257.946 60.29C255.574 58.9122 253.749 56.9662 252.471 54.452C251.192 51.9236 250.553 48.9477 250.553 45.5244C250.553 42.1579 251.192 39.2034 252.471 36.6608C253.763 34.104 255.567 32.1153 257.882 30.6949C260.198 29.2602 262.918 28.5429 266.043 28.5429C268.06 28.5429 269.963 28.8696 271.753 29.523C273.557 30.1622 275.148 31.1565 276.526 32.5059C277.918 33.8554 279.012 35.5741 279.807 37.6622C280.603 39.7361 281 42.2077 281 45.077V47.442H254.175V42.2432H273.607C273.593 40.7659 273.273 39.452 272.648 38.3014C272.023 37.1366 271.15 36.2204 270.027 35.5528C268.919 34.8852 267.627 34.5514 266.15 34.5514C264.573 34.5514 263.188 34.9349 261.995 35.702C260.801 36.4548 259.871 37.4491 259.203 38.6849C258.55 39.9065 258.216 41.2488 258.202 42.7119V47.2503C258.202 49.1537 258.55 50.7872 259.246 52.1508C259.942 53.5003 260.915 54.5372 262.165 55.2616C263.415 55.9719 264.878 56.327 266.554 56.327C267.676 56.327 268.692 56.1707 269.601 55.8582C270.51 55.5315 271.299 55.0557 271.966 54.4307C272.634 53.8057 273.138 53.0315 273.479 52.1082L280.681 52.9179C280.226 54.8213 279.36 56.4832 278.081 57.9037C276.817 59.3099 275.198 60.4037 273.223 61.1849C271.249 61.952 268.99 62.3355 266.448 62.3355ZM287.526 61.6963V28.969H295.004V34.4236H295.345C295.942 32.5344 296.964 31.0784 298.413 30.0557C299.876 29.0187 301.545 28.5003 303.42 28.5003C303.847 28.5003 304.322 28.5216 304.848 28.5642C305.388 28.5926 305.835 28.6423 306.19 28.7133V35.8085C305.864 35.6949 305.345 35.5954 304.635 35.5102C303.939 35.4108 303.264 35.3611 302.611 35.3611C301.205 35.3611 299.94 35.6665 298.818 36.2773C297.71 36.8738 296.837 37.7048 296.197 38.7702C295.558 39.8355 295.239 41.0642 295.239 42.4562V61.6963H287.526ZM340.888 31.9946C340.533 30.844 340.043 29.8142 339.418 28.9051C338.808 27.9818 338.069 27.1934 337.202 26.54C336.35 25.8866 335.37 25.3966 334.262 25.0699C333.154 24.729 331.947 24.5585 330.64 24.5585C328.296 24.5585 326.208 25.148 324.376 26.327C322.543 27.5059 321.102 29.2389 320.05 31.5258C319.013 33.7986 318.495 36.5684 318.495 39.8355C318.495 43.1309 319.013 45.9221 320.05 48.2091C321.087 50.496 322.529 52.2361 324.376 53.4292C326.222 54.6082 328.367 55.1977 330.81 55.1977C333.026 55.1977 334.944 54.7716 336.563 53.9193C338.197 53.067 339.454 51.8596 340.335 50.2971C341.215 48.7204 341.656 46.8738 341.656 44.7574L343.445 45.0344H331.599V38.8554H349.305V44.0969C349.305 47.8327 348.509 51.0642 346.918 53.7915C345.327 56.5187 343.14 58.621 340.356 60.0983C337.572 61.5613 334.376 62.2929 330.768 62.2929C326.748 62.2929 323.218 61.3909 320.178 59.5869C317.153 57.7687 314.788 55.1906 313.083 51.8525C311.393 48.5003 310.548 44.523 310.548 39.9207C310.548 36.398 311.045 33.2517 312.039 30.4818C313.048 27.7119 314.454 25.3611 316.258 23.4292C318.062 21.4832 320.178 20.0059 322.607 18.9974C325.036 17.9747 327.678 17.4633 330.533 17.4633C332.948 17.4633 335.2 17.8184 337.288 18.5287C339.376 19.2247 341.229 20.219 342.849 21.5116C344.482 22.8042 345.825 24.3383 346.876 26.1139C347.927 27.8895 348.616 29.8497 348.942 31.9946H340.888ZM364.321 42.5202V61.6963H356.608V18.0599H364.15V34.5301H364.534C365.301 32.6835 366.487 31.2275 368.092 30.1622C369.711 29.0827 371.771 28.5429 374.271 28.5429C376.544 28.5429 378.525 29.0187 380.216 29.9704C381.906 30.9221 383.213 32.3142 384.136 34.1466C385.074 35.979 385.542 38.2162 385.542 40.8582V61.6963H377.829V42.0514C377.829 39.8497 377.261 38.138 376.125 36.9165C375.002 35.6807 373.426 35.0628 371.395 35.0628C370.031 35.0628 368.809 35.3611 367.73 35.9577C366.664 36.54 365.826 37.3852 365.216 38.4932C364.619 39.6011 364.321 40.9434 364.321 42.5202ZM407.68 62.3355C404.484 62.3355 401.714 61.6324 399.37 60.2261C397.027 58.8199 395.208 56.8525 393.916 54.3241C392.637 51.7957 391.998 48.8412 391.998 45.4605C391.998 42.0798 392.637 39.1182 393.916 36.5755C395.208 34.0329 397.027 32.0585 399.37 30.6523C401.714 29.246 404.484 28.5429 407.68 28.5429C410.876 28.5429 413.646 29.246 415.99 30.6523C418.333 32.0585 420.145 34.0329 421.423 36.5755C422.716 39.1182 423.362 42.0798 423.362 45.4605C423.362 48.8412 422.716 51.7957 421.423 54.3241C420.145 56.8525 418.333 58.8199 415.99 60.2261C413.646 61.6324 410.876 62.3355 407.68 62.3355ZM407.723 56.1565C409.456 56.1565 410.904 55.6807 412.069 54.729C413.234 53.7631 414.1 52.4704 414.669 50.8511C415.251 49.2318 415.542 47.4278 415.542 45.4392C415.542 43.4363 415.251 41.6253 414.669 40.0059C414.1 38.3724 413.234 37.0727 412.069 36.1068C410.904 35.1409 409.456 34.6579 407.723 34.6579C405.947 34.6579 404.47 35.1409 403.291 36.1068C402.126 37.0727 401.252 38.3724 400.67 40.0059C400.102 41.6253 399.818 43.4363 399.818 45.4392C399.818 47.4278 400.102 49.2318 400.67 50.8511C401.252 52.4704 402.126 53.7631 403.291 54.729C404.47 55.6807 405.947 56.1565 407.723 56.1565ZM455.775 37.6196L448.744 38.3866C448.545 37.6764 448.197 37.0088 447.7 36.3838C447.217 35.7588 446.563 35.2545 445.739 34.871C444.915 34.4875 443.907 34.2957 442.714 34.2957C441.109 34.2957 439.759 34.6437 438.665 35.3398C437.586 36.0358 437.053 36.9378 437.067 38.0457C437.053 38.9974 437.401 39.7716 438.112 40.3682C438.836 40.9648 440.029 41.4548 441.691 41.8383L447.273 43.0315C450.37 43.6991 452.671 44.7574 454.177 46.2062C455.697 47.6551 456.464 49.5514 456.478 51.8952C456.464 53.9548 455.86 55.773 454.667 57.3497C453.488 58.9122 451.847 60.1338 449.745 61.0145C447.643 61.8952 445.228 62.3355 442.501 62.3355C438.495 62.3355 435.271 61.4974 432.827 59.8213C430.384 58.1309 428.928 55.7801 428.46 52.7687L435.981 52.0443C436.322 53.5216 437.046 54.6366 438.154 55.3895C439.262 56.1423 440.704 56.5187 442.479 56.5187C444.312 56.5187 445.782 56.1423 446.89 55.3895C448.012 54.6366 448.573 53.7062 448.573 52.5983C448.573 51.6608 448.211 50.8866 447.487 50.2758C446.776 49.665 445.668 49.1963 444.163 48.8696L438.58 47.6977C435.441 47.0443 433.119 45.9434 431.613 44.3952C430.107 42.8327 429.362 40.8582 429.376 38.4719C429.362 36.4548 429.908 34.7077 431.016 33.2304C432.138 31.7389 433.694 30.5883 435.683 29.7787C437.685 28.9548 439.994 28.5429 442.607 28.5429C446.442 28.5429 449.461 29.3596 451.663 30.9932C453.879 32.6267 455.249 34.8355 455.775 37.6196ZM479.18 28.969V34.9349H460.366V28.969H479.18ZM465.011 21.1281H472.724V51.8525C472.724 52.8895 472.881 53.6849 473.193 54.2389C473.52 54.7787 473.946 55.148 474.472 55.3469C474.997 55.5457 475.58 55.6452 476.219 55.6452C476.702 55.6452 477.142 55.6096 477.54 55.5386C477.952 55.4676 478.264 55.4037 478.477 55.3469L479.777 61.3767C479.365 61.5187 478.776 61.675 478.009 61.8454C477.256 62.0159 476.332 62.1153 475.239 62.1437C473.307 62.2006 471.567 61.9094 470.018 61.2702C468.47 60.6167 467.241 59.6082 466.332 58.2446C465.438 56.8809 464.997 55.1764 465.011 53.1309V21.1281Z" fill="#336CFF"/>
</g>
<defs>
<clipPath id="clip0_2471_10545">
<rect width="482" height="76" fill="white"/>
</clipPath>
</defs>
</svg>
